<svg id="Layer_1" data-name="Layer 1" xmlns="http://www.w3.org/2000/svg" viewBox="0 0 600 396"><defs><style>.cls-1{fill:#0f2f56;}.cls-2{fill:#af9423;}</style></defs><title>Artboard 2</title><path class="cls-1" d="M555,71.19,369.25,82.53c-11.93-.54-143.79.6-229.41.73-36.82.06-65.09-.89-71.59-.89C69,93,69.4,124.7,69.4,143.43c15.07,0,56.73.74,71,.23l1,7c-13.72-.52-56.37-1.77-72-1.77,0,10.95.07,33.62.2,56.68.18,29.75-1.54,60.16-1.14,66.92H49c.49-10.71-2.16-35.37-1.94-59.59.2-20.74-.71-41.15-.71-52.21,0-13-1.15-35.54-1.45-55.49-.22-14.55.48-27.76.1-35Z"/><path class="cls-1" d="M97.37,330.14c4.63-2.14,14.34-4.78,18.48-6.35s11.79-7.79,13.91-11.36c6.11-10.31,7.69-71.29,7.29-82.31-.18-5-.41-5.26-.41-13.15,0-29.11-.48-52.7-1.45-72.78l12.28-1c-.45,9.75,1.21,20.56,1,32.42s-.34,24.91-.34,39.15c0,10.33-.86,86.85-2.59,93.59a44.93,44.93,0,0,1-8.13,17,33.22,33.22,0,0,1-14.19,10.3c-5.77,2.24-14.78,5.36-14.78,5.36s-.43,0-3.74-6"/><path class="cls-1" d="M428.43,207.14c0-17.89,6.22-28.52,18.66-41.89s31.78-23.13,51.75-27.06c7.8-1.54,15.49-4.07,22.61-2.21L517,147c-10.17-.83-17.17,3.17-23.17,5.17-14.59,6-27.81,12.68-36.05,22.07s-12.36,16.05-12.36,30,4.72,21.23,14.18,31.74,24.23,18.22,40.07,20.78c3.1.5,13.85-.48,20.14-1.45A145.7,145.7,0,0,1,518.21,232a175.93,175.93,0,0,0-1.34-21.84h11.5q-.76,12.7-.77,26.84,0,5.08.54,21c.07,2.05.23,6.56.23,6.56L517,300.38l-7.69,1.15,9.79-33.31s2.64,3.39-22.58.54c-5.66-.64-42-15.61-50.93-25-11.45-12-17.17-18.88-17.17-36.58"/><polygon class="cls-2" points="181.16 284.36 172.04 285.05 236.84 140.64 241.96 146.95 181.16 284.36"/><polygon class="cls-2" points="238.9 162.64 244 149.62 311.84 283.49 303.06 284.3 238.9 162.64"/><path class="cls-1" d="M311.43,207c0-17.89,6.22-28.52,18.66-41.89s31.78-23.13,51.75-27.06c7.8-1.54,15.49-4.07,22.61-2.21l-4.41,11C389.87,146,382.87,150,376.87,152c-14.59,6-27.81,12.68-36.05,22.07s-12.36,16.05-12.36,30,4.72,21.23,14.18,31.74,24.23,18.22,40.07,20.78c3.1.5,13.85-.48,20.14-1.45a145.7,145.7,0,0,1-1.64-23.27A175.93,175.93,0,0,0,399.87,210h11.5q-.76,12.69-.77,26.84,0,5.08.54,21c.07,2.05.23,6.56.23,6.56L400,300.26l-7.69,1.15,9.79-33.32s2.64,3.4-22.58.55c-5.66-.64-42-15.61-50.93-25-11.45-12-17.17-18.88-17.17-36.58"/></svg>