<svg xmlns="http://www.w3.org/2000/svg" xmlns:xlink="http://www.w3.org/1999/xlink" viewBox="0 0 595.28 595.28"><defs><style>.cls-1,.cls-10,.cls-2,.cls-3,.cls-4,.cls-7,.cls-8,.cls-9{fill:none;}.cls-1,.cls-2,.cls-3,.cls-4,.cls-7,.cls-8,.cls-9{stroke:#9e8554;}.cls-1,.cls-18,.cls-2,.cls-3,.cls-30,.cls-4,.cls-7,.cls-8,.cls-9{stroke-miterlimit:10;}.cls-2{stroke-width:2px;}.cls-3{stroke-width:3px;}.cls-4{stroke-width:5px;}.cls-5{fill:#020201;}.cls-38,.cls-5,.cls-6{opacity:0.5;}.cls-6{fill:#a4bfa6;}.cls-7{stroke-width:7px;}.cls-8{stroke-width:6px;}.cls-9{stroke-width:4px;}.cls-10{stroke:#5c5175;stroke-width:0.5px;}.cls-11,.cls-13,.cls-18,.cls-20,.cls-25,.cls-29,.cls-30,.cls-38{fill:#222221;}.cls-12,.cls-22,.cls-34,.cls-36{fill:#fff;}.cls-13,.cls-20,.cls-25,.cls-29,.cls-34{font-size:10px;}.cls-13,.cls-18,.cls-20,.cls-22,.cls-25,.cls-29,.cls-30,.cls-34,.cls-36{font-family:Prata-Regular, Prata;}.cls-13{letter-spacing:-0.03em;}.cls-14,.cls-20,.cls-34{letter-spacing:0.01em;}.cls-15,.cls-25{letter-spacing:0em;}.cls-16{letter-spacing:-0.02em;}.cls-17{letter-spacing:-0.01em;}.cls-18,.cls-30{font-size:19px;stroke:#222221;}.cls-18{letter-spacing:0.1em;}.cls-19{letter-spacing:0.09em;}.cls-21{letter-spacing:0em;}.cls-22,.cls-36{font-size:11px;}.cls-22{letter-spacing:-0.01em;}.cls-23{letter-spacing:0.01em;}.cls-24,.cls-36{letter-spacing:0.01em;}.cls-26{letter-spacing:0.01em;}.cls-27{letter-spacing:-0.02em;}.cls-28{letter-spacing:-0.01em;}.cls-29{letter-spacing:-0.06em;}.cls-30{letter-spacing:0.03em;}.cls-31{letter-spacing:0.02em;}.cls-32{letter-spacing:0.03em;}.cls-33{letter-spacing:-0.02em;}.cls-35{letter-spacing:-0.02em;}.cls-37{letter-spacing:-0.02em;}</style><image id="image" width="1600" height="1600" xlink:href="../../../../Pictures/train.png"/></defs><title>Artboard 1</title><g id="Layer_1" data-name="Layer 1"><polyline class="cls-1" points="360.84 310.94 398.29 315.49 413.92 356.34"/><polyline class="cls-1" points="360.84 260.13 371.2 268.69 403.72 295.37 405.54 297.77 416.31 311.94"/><line class="cls-1" x1="416.31" y1="294.52" x2="402.47" y2="294.52"/><line class="cls-2" x1="450.49" y1="299.87" x2="466.2" y2="315.85"/><path class="cls-1" d="M416.31,312l7.86,24.43s5.1,5.8,9.9,8.73"/><path class="cls-1" d="M433.78,344.9,450.49,353l35.13,18.48,7.85,4.65L504,383.76s10.93,2.57,18.76,25.93c6.14,18.32,4.36,19.2,8.94,32.73l5.49,6.54L528,457.25l-8.32,2.19-38.38,24.5-11.12,3-14.62,9.59L437.36,514"/><polyline class="cls-2" points="359.16 419.73 394.86 403.14 404.72 396.93 415.31 387.44 448.37 351.94"/><line class="cls-3" x1="265.17" y1="393.32" x2="303.22" y2="457.25"/><polyline class="cls-2" points="303.22 457.25 321.55 491.13 368.08 527.3 403.77 559.54 356.65 592.53 361.16 597.2"/><path class="cls-2" d="M213.79,455.94s17.86-10.37,23.54-3,17.89,34.42,17.89,34.42l23.13,35.35s3.94,5.54,8.08,4.51S306.27,507,306.27,507l15.28-15.87"/><path class="cls-2" d="M267.32,396.93,235.58,442s-4.8,5.34,1.75,11"/><polyline class="cls-2" points="238.15 455.25 291.32 437.25 352.25 403.49"/><line class="cls-3" x1="317.72" y1="423.18" x2="304.18" y2="383.76"/><polyline class="cls-3" points="461.69 358.85 442.42 380.89 425.19 403.49 416.31 416.24 405.72 435.69 391.58 446.35 349.25 473.86 321.63 490.75"/><polyline class="cls-2" points="273.03 568 304.18 538.86 342 507.03 379.19 479.26 403.77 461.62 413.92 455.25 419.06 452.94 452.91 454.72 498.27 450.3 531.65 442.42 554.62 431.84 576.82 425.84 593.26 415.14 617.4 400.09"/><line class="cls-4" x1="267.32" y1="563.73" x2="213.79" y2="603.87"/><line class="cls-1" x1="401.33" y1="506.13" x2="369.43" y2="461.99"/><line class="cls-1" x1="254" y1="538.66" x2="278.35" y2="522.71"/><line class="cls-2" x1="365.66" y1="441.4" x2="400.14" y2="429.37"/><line class="cls-3" x1="402.77" y1="559.55" x2="421.17" y2="546.94"/><polyline class="cls-2" points="343.16 579.54 388.82 545.94 413.06 531.69 437.36 513.98"/><polyline class="cls-2" points="455.51 496.53 437.36 480.5 419.06 452.94"/><line class="cls-2" x1="437.36" y1="480.5" x2="401.48" y2="506.51"/><polyline class="cls-2" points="395.97 565.01 405.72 579.54 400.14 583.8"/><polyline class="cls-1" points="537.32 448.3 560.24 441.4 582.05 435.27 598 426.95"/><path class="cls-2" d="M442.42,380.89l18.27,19.58,15.76,14.68s16.32,22.47,19.82,35.15"/><polyline class="cls-3" points="463.36 454.72 450.49 429.44 476.45 415.14 503.94 383.76 539.52 364.28 588.6 336.82 598 316.86"/><path class="cls-1" d="M459.45,321.9l6.75,5.62s2.84,3.92,0,7S450.49,353,450.49,353"/><polyline class="cls-2" points="558.92 319.9 566.16 319.9 589.66 334.56"/><line class="cls-2" x1="598" y1="345.11" x2="588.6" y2="333.82"/><polyline class="cls-2" points="413.92 455.25 411.97 446.35 405.77 435.91"/><polyline class="cls-2" points="427.32 424.8 455.51 406.49 461.69 400.47 484.35 370.73"/><line class="cls-1" x1="431.78" y1="394.46" x2="442.19" y2="415.15"/><line class="cls-2" x1="439.36" y1="416.98" x2="450.49" y2="429.44"/><path class="cls-3" d="M586.29,544l-.36.49A19.57,19.57,0,0,0,582.28,559c.63,4,2.15,8,5.69,9a36.82,36.82,0,0,1,12.41,6.4"/><path class="cls-3" d="M589.66,546.94S581,563.09,595.28,571"/><polyline class="cls-2" points="582.06 378.49 555.6 393.31 548.89 397.76 534.05 404.81 522.71 409.69"/><line class="cls-2" x1="567.66" y1="426.95" x2="555.6" y2="393.32"/><path class="cls-3" d="M555.39,392.83l-15.87-28.55-25.1-16.55-4.61-6a14.28,14.28,0,0,0-3-2.88l-8.56-6.17-2.68-1.87a18.37,18.37,0,0,0-10.51-3.31H484a15.15,15.15,0,0,1-9.37-3.88l-9.29-8.36"/><polyline class="cls-2" points="538.32 484.94 542.91 478.5 537.14 447.94"/><line class="cls-2" x1="540.33" y1="464.81" x2="563.19" y2="457.25"/><line class="cls-2" x1="526.95" y1="457.25" x2="533.62" y2="484.94"/><polyline class="cls-2" points="539.32 486.94 554.62 484.06 570.66 471.86"/><polyline class="cls-2" points="600.38 491.53 586.29 500.45 574.29 510.93 561.63 498.27 556.6 495.53 539.32 486.82"/><line class="cls-2" x1="598.08" y1="524.89" x2="574.29" y2="510.93"/><polyline class="cls-3" points="600.38 522.71 588.6 498.27 577.69 477.33 571.14 473.86 556.6 442.4"/><polyline class="cls-2" points="569.85 468.6 591.17 461.99 598.08 458.03"/><polyline class="cls-2" points="583.05 435.27 590.17 461.99 598 479.4"/><line class="cls-2" x1="582.06" y1="486.82" x2="608.18" y2="474.73"/><line class="cls-2" x1="335.33" y1="572.02" x2="304.18" y2="603.87"/><line class="cls-2" x1="578.49" y1="368.85" x2="600.38" y2="356.34"/><path class="cls-1" d="M329.43,517.61l4.55,7.95a34.5,34.5,0,0,0,6.75,8.42l11,10"/><path class="cls-2" d="M254,538.66,213.92,562.2a26.05,26.05,0,0,1-14,3.06l-10.07-2a21.45,21.45,0,0,0-12.39,1.21c-3,1.24-6,2.68-7.65,3.26l5-4"/><line class="cls-2" x1="479.36" y1="133.68" x2="489.84" y2="143.36"/><path class="cls-2" d="M465.32,145.69l13.53,12.09a9.4,9.4,0,0,1,3.13,7h0a9.51,9.51,0,0,0,2,5.91l1.81,2.3a16.42,16.42,0,0,1,2.86,5.52l1.14,3.84,1,3"/></g><g id="Layer_2" data-name="Layer 2"><path class="cls-5" d="M22,465.29,38.74,343.43c.63-4.57,4.91-4.73,9.47-3.95,15.62,2.67,49.13,22.46,48.79,34.38-.71,25-14.29,100-14.29,100Z"/><path class="cls-6" d="M234.22,287.21,208.88,339.1l-.27.6-23.42,56a3.09,3.09,0,0,0,.59,3.28l34.11,36.69a3.08,3.08,0,0,0,4.63-.14l7.06-8.57a3.09,3.09,0,0,0,.71-2V420a3.06,3.06,0,0,1,.56-1.78l63.87-89.92a3.08,3.08,0,0,0-.93-4.42l-14.22-8.57,2.86.28-27.3-19.05a3.1,3.1,0,0,0-2.74-.39h0a3.09,3.09,0,0,1-2.82-.46l-12.73-9.57A3.08,3.08,0,0,0,234.22,287.21Z"/><path class="cls-5" d="M51.8,302.78l18.33,14S80,307.48,88.45,329C96,348,109,336.82,109,336.82l87.63-160.58c.13.46-14.71-10.48-3.49-17.46,6.49-4-39.27-30.54-39.27-30.54s-5.56-.16-10.47,10.47C135.55,155.77,51.8,302.78,51.8,302.78Z"/><path class="cls-5" d="M214.77,407.69a7.35,7.35,0,0,1,1.16-5.42c2.25-3.43,6.34-11.78,3.07-23.56-4.36-15.71,1.22-37.59,1.22-37.59s4.89-20,13.62-20.88,3.49-14.84,28.8,0c15.62,9.16,14.61,15,11.56,18.05a7.44,7.44,0,0,1-7.47,1.83c-4.79-1.46-14.23-3.56-18.06,1-5.23,6.19-9.6-3.22-11.34,17.63s-.88,18.23,0,27.83,0,22-7,21.93C224.23,408.4,216.1,414.41,214.77,407.69Z"/><path class="cls-7" d="M-5.29,247.8s1.64,2.93,4.73,7.83C8.72,270.32,31.09,302.73,61.5,327c5.51,4.38,10.53,8.34,15.16,12s8.62,6.72,12.45,9.67c21.33,16.45,33.7,17.42,51,32.13,27.81,23.69,63.23,64.1,74.51,87.89,3.76,7.93,15.48,28.81,27.17,49.07,10.2,17.66,20.37,34.84,25.25,42.57,10.47,16.58,47.13,43.63,47.13,43.63"/><path class="cls-7" d="M354.65-17.51s-81,116.35-88.34,130a862.5,862.5,0,0,1-52.87,86.4c-26.95,38.61-47.31,67.75-60.24,93.38-15,29.67-40.6,72-40.6,72"/><path class="cls-4" d="M338.69-7.91,309,30.49l-50.62,69s-23.56,21.81-28.8,35.78-14,24.84-20.95,38.16-18.32,32.53-18.32,32.53L170.25,247.8l-37.52,62-29.22,49.09"/><polyline class="cls-8" points="354.65 260.89 314.13 230.34 245.31 184.09 221.1 164.89 170.13 129.24 119.51 94.2 54.8 48.82 -5 8.04"/><path class="cls-8" d="M192,603.87s-70.53-55.34,16.22-145c4.36-4.51,8.67-8.09,12.93-12.71,4-4.39,8-9.81,11.93-14.27,74.4-84.5,129.1-179.68,129.1-179.68l32.29-29.67c2.62,0,35.78-42.76,35.78-42.76L470.35,137s24.43-16.58,30.54-18.32,25.31-28.8,25.31-28.8l39.27-36.66L610.85,20"/><path class="cls-5" d="M163.91,117.76l38.38,27.93s13.28-1.33,17.81-8.73C237.2,109,326.71-1.92,326.71-1.92h-82.4L166.25,100.72a3.22,3.22,0,0,0,.59,4.5C169.08,107,170.74,110.63,163.91,117.76Z"/><path class="cls-4" d="M372.6-8.91S477.88,92.52,508.15,111.63,603,152.55,603,152.55"/><path class="cls-3" d="M431.07-7.91s-11.34,36.66-24.43,49.75-40.15,55-40.15,55S333.18,130,326.71,140.45s-26.81,35.79-28.43,39.28-25.6,41-25.6,41A198.12,198.12,0,0,1,251.29,253c-17.66,21.81-19.2,34-35.78,58.91S195.18,356,189.07,370s-20,62.84-25.16,81.17-9,42.76-12.49,48-10.09,54.1-9.22,58.47-6.11,36.65,3.49,46.25"/><path class="cls-3" d="M224.84,145.69,332.45,190.2l55.43,25.31,67.63,32.29,40.14,20.95,39.28,15.73s14,3.65,22.69,13.16S603,318.49,603,318.49"/><path class="cls-9" d="M73.25,603.87,89,491.29l14.55-91.64a231.26,231.26,0,0,0-.53-23.51c-.77-9.46-2.44-18.78-6-21.49"/><polygon class="cls-7" points="109.91 368.82 104.96 384.53 101.76 360.09 109.91 368.82"/><path class="cls-2" d="M294.05,145.69l-8.23,7.86s-15.13,18.47-21.44,28.8-30.75,49.74-30.75,49.74-26,28.8-32.08,44.51S177.33,312,177.33,312l-22.91,42.7-13.86,17.66-12.32,57h-4L112.6,492.16l-9,57.48,6.31,2-8.15,45.55"/><polyline class="cls-2" points="112.6 425.84 135.21 429.84 168.28 435.69"/><polyline class="cls-2" points="139.44 325.47 164.91 335.1 196.67 358.85"/><path class="cls-6" d="M413.92,43s77.95,61,80,69.85c1,4.2-31.46,9.52-45.38,31.36-16.09,25.22-28.2,38.17-34.61,38.17s-14.52,23.56-19.76,24.43-73.05-23.22-80-31.31,46.71-62.65,46.71-62.65Z"/><line class="cls-2" x1="164.91" y1="271.29" x2="194.72" y2="289.48"/><line class="cls-2" x1="182.29" y1="306.22" x2="207.36" y2="325.47"/><line class="cls-1" x1="177.33" y1="251.6" x2="207.36" y2="265.72"/><line class="cls-2" x1="81.34" y1="545.94" x2="142.2" y2="557.62"/><line class="cls-1" x1="115.14" y1="552.43" x2="135.21" y2="429.84"/><polyline class="cls-2" points="338.69 289.48 285.82 251.6 262.35 238.01 242.12 218.39 216.31 194.79 207.37 182.34"/><polyline class="cls-2" points="210.59 258.89 233.63 277.15 257.13 293.52 285.82 251.6 332.45 190.2"/><line class="cls-2" x1="243.31" y1="112.82" x2="284.82" y2="154.55"/><polyline class="cls-3" points="360.84 203.16 332.45 244.16 286.43 311.57 312.57 330.15"/><polyline class="cls-1" points="326.71 140.46 338.69 149.18 323.63 164.02"/><line class="cls-2" x1="346.42" x2="401.47" y2="47.58"/><polyline class="cls-1" points="372.6 105.55 401.47 68.02 334.69 13.65"/><path class="cls-10" d="M183.33,469c1.07-1.82,2.18-3.62,3.31-5.4.57-.88,1.13-1.77,1.71-2.63s1.2-1.75,1.71-2.47"/><path class="cls-10" d="M181.73,468c1.08-1.84,2.21-3.66,3.35-5.45s2.34-3.61,3.49-5.21"/><path class="cls-10" d="M185.58,455.18c-2.5,3.52-4.82,7.23-7,11"/><path class="cls-10" d="M180.14,467.09c2.18-3.7,4.51-7.41,6.93-10.81"/><path class="cls-10" d="M184.08,454.08c-2.57,3.63-4.89,7.34-7.13,11.12"/><path class="cls-10" d="M177.19,480.12c1.92-3.78,4-7.49,6.14-11.14"/><path class="cls-10" d="M175.54,479.28c1.94-3.82,4-7.56,6.19-11.25"/><path class="cls-10" d="M178.54,466.15c-2.2,3.75-4.32,7.56-6.3,11.44"/><path class="cls-10" d="M173.89,478.43c2-3.85,4.06-7.62,6.25-11.34"/><path class="cls-10" d="M177,465.2c-2.23,3.79-4.37,7.63-6.35,11.55"/><path class="cls-10" d="M171.72,491.63c1.69-3.9,3.55-7.72,5.47-11.5"/><path class="cls-10" d="M170,490.88c1.7-3.93,3.57-7.78,5.51-11.6"/><path class="cls-10" d="M172.24,477.59c-2,3.88-3.87,7.8-5.6,11.8"/><path class="cls-10" d="M168.33,490.13c1.72-4,3.61-7.84,5.56-11.69"/><path class="cls-10" d="M170.6,476.75c-2,3.91-3.91,7.86-5.66,11.89"/><path class="cls-10" d="M166.94,503.42c1.5-4,3.05-7.91,4.78-11.79"/><path class="cls-10" d="M165.2,502.77c1.52-4,3.08-8,4.83-11.89"/><path class="cls-10" d="M166.64,489.39c-1.78,4-3.37,8-4.92,12.1"/><path class="cls-10" d="M163.46,502.13c1.53-4,3.11-8.05,4.87-12"/><path class="cls-10" d="M164.94,488.64c-1.79,4-3.4,8.1-5,12.21"/><path class="cls-10" d="M162.93,515.46c.57-2,1.28-4,1.91-6.05s1.39-4,2.1-6"/><path class="cls-10" d="M161.16,514.94c.57-2.06,1.28-4.08,1.92-6.11s1.41-4,2.12-6.06"/><path class="cls-10" d="M161.72,501.49c-.72,2.05-1.47,4.1-2.16,6.16s-1.37,4.13-1.95,6.23"/><path class="cls-10" d="M159.38,514.41c.58-2.08,1.3-4.11,1.94-6.17s1.42-4.07,2.14-6.11"/><path class="cls-10" d="M160,500.85c-.73,2.07-1.48,4.13-2.17,6.22s-1.39,4.16-2,6.28"/><path class="cls-10" d="M159.76,527.72c.42-2.07,1-4.11,1.48-6.15s1.12-4.07,1.69-6.11"/><path class="cls-10" d="M158,527.32c.42-2.09,1-4.15,1.49-6.22s1.14-4.11,1.72-6.16"/><path class="cls-10" d="M157.61,513.88c-.6,2.09-1.25,4.17-1.75,6.29s-1.09,4.21-1.53,6.35"/><path class="cls-10" d="M156.14,526.92c.43-2.11,1-4.2,1.51-6.28s1.14-4.16,1.73-6.23"/><path class="cls-10" d="M155.83,513.35c-.6,2.12-1.25,4.22-1.77,6.35s-1.1,4.26-1.54,6.41"/><path class="cls-10" d="M157.51,540.13,158,537l.56-3.1c.2-1,.36-2.07.58-3.1l.67-3.09"/><path class="cls-10" d="M155.67,539.87l.45-3.15.57-3.14c.2-1.05.36-2.1.58-3.14l.68-3.12"/><path class="cls-10" d="M154.33,526.52l-.69,3.18c-.23,1.07-.4,2.14-.6,3.21l-.57,3.21-.47,3.23"/><path class="cls-10" d="M153.84,539.61l.45-3.19.58-3.18c.19-1,.36-2.12.58-3.17l.69-3.15"/><path class="cls-10" d="M152.52,526.12l-.7,3.22c-.23,1.07-.4,2.16-.6,3.24l-.58,3.25-.47,3.26"/><polyline class="cls-10" points="156.27 552.64 156.44 549.5 156.76 546.38 157.07 543.25 157.51 540.13"/><polyline class="cls-10" points="154.42 552.53 154.6 549.36 154.91 546.19 155.23 543.03 155.67 539.87"/><polyline class="cls-10" points="152 539.35 151.55 542.58 151.22 545.83 150.9 549.07 150.72 552.33"/><polyline class="cls-10" points="152.57 552.43 152.75 549.22 153.07 546.01 153.39 542.8 153.84 539.61"/><polyline class="cls-10" points="150.17 539.09 149.71 542.36 149.38 545.64 149.06 548.93 148.87 552.22"/><path class="cls-10" d="M156.15,565.15c0-1-.1-2.08-.12-3.12l0-3.13,0-3.13.17-3.13"/><path class="cls-10" d="M154.29,565.22c0-1.05-.09-2.11-.11-3.17l0-3.17,0-3.17.17-3.18"/><path class="cls-10" d="M150.72,552.33l-.18,3.25,0,3.26,0,3.26c0,1.09.07,2.17.11,3.26"/><path class="cls-10" d="M152.44,565.29c0-1.07-.1-2.14-.11-3.21l0-3.22,0-3.22.18-3.21"/><path class="cls-10" d="M148.87,552.22l-.18,3.3,0,3.3,0,3.31c0,1.1.08,2.2.12,3.3"/><path class="cls-10" d="M157.21,577.59c-.35-2.05-.49-4.13-.68-6.2-.09-1-.22-2.07-.26-3.11l-.12-3.12"/><path class="cls-10" d="M155.38,577.84c-.36-2.08-.51-4.19-.7-6.29-.08-1.06-.22-2.1-.26-3.16l-.13-3.17"/><path class="cls-10" d="M150.59,565.36l.13,3.26c0,1.08.18,2.16.27,3.24.2,2.16.35,4.33.71,6.48"/><path class="cls-10" d="M153.54,578.09c-.36-2.12-.51-4.25-.71-6.39-.08-1.06-.22-2.13-.26-3.2l-.13-3.21"/><path class="cls-10" d="M148.74,565.43l.13,3.3c0,1.1.18,2.19.27,3.29.2,2.19.36,4.39.73,6.57"/><path class="cls-10" d="M159.52,589.81a117.46,117.46,0,0,1-2.31-12.22"/><path class="cls-10" d="M157.72,590.25a115.94,115.94,0,0,1-2.34-12.41"/><path class="cls-10" d="M151.7,578.34a123.17,123.17,0,0,0,2.42,12.79"/><path class="cls-10" d="M155.92,590.69a122.64,122.64,0,0,1-2.38-12.6"/><path class="cls-10" d="M149.87,578.59a124.17,124.17,0,0,0,2.45,13"/><path class="cls-10" d="M163.07,601.73l-1.93-5.91c-.62-2-1.08-4-1.62-6"/><path class="cls-10" d="M161.33,602.35l-2-6c-.62-2-1.09-4.07-1.64-6.1"/><path class="cls-10" d="M154.12,591.13c.57,2.1,1,4.22,1.7,6.29l2,6.19"/><path class="cls-10" d="M159.58,603l-2-6.09c-.63-2-1.11-4.13-1.67-6.2"/><path class="cls-10" d="M152.32,591.57c.58,2.13,1.07,4.28,1.72,6.38l2.06,6.29"/><path class="cls-6" d="M429.7,38.35l73.7,62,31.16-27.49-1-13.22,8.73-12,11.47,3S606,9.55,609.49-7.91s-123.06,6-123.06,6S421.31,31,429.7,38.35Z"/><polygon class="cls-6" points="510.75 118.89 500.02 128.24 491.29 145.69 496.53 152.54 492.29 151.54 489.29 157.02 515.24 173.38 486.8 207.24 463.36 243.86 499.64 260.89 553.13 287.48 580.81 232.09 610.92 167.51 588.45 154.86 551.31 140.46 510.75 118.89"/><path class="cls-5" d="M27.49,487l50,8.82a4,4,0,0,1,3.23,4.56L63.65,603.87l-55.6-6.68L19.21,491.57C19.64,488.55,24.49,486.49,27.49,487Z"/><path class="cls-9" d="M-5.29,467.73s23.16,4.4,27.29,6.13,66.43,9.58,66.43,9.58l23.34,3.5,12.47,4.19,27.18,8s2.8-12.22,23.41,9.6L185,531.44l7.39,2.61,41.28-30.56,21.59-16.13,27.49-15.71,20.51-14.4s55-35.46,57.94-29.66"/><path class="cls-4" d="M168.28,567.58l-22.15,12.51s-21.57,3.88-23.89,16.19"/><polyline class="cls-3" points="130.96 152.24 80.75 118.89 34.41 90.89 13.07 71.89 -5.29 59.6"/><polyline class="cls-2" points="149.26 0 202.1 42.97 179.81 76.66 152.42 112.82 130.24 152.02"/><polyline class="cls-3" points="194.72 -7.91 170.88 20.02 119.51 94.2"/><polyline class="cls-2" points="360.84 86.83 326.71 124.89 309.83 145.69 318.67 152.02"/><line class="cls-2" x1="343.72" y1="105.92" x2="350.83" y2="112.82"/><polyline class="cls-9" points="104 82.2 81.75 117.89 59.5 152.02 44.4 169.15 34.41 182.34 8.05 224.03 -10.3 234.17"/><polyline class="cls-3" points="59.5 -1.92 62.84 13.65 44.4 43.15 38.9 37.97 17.7 76.01 -5 105.92"/><line class="cls-3" x1="62.84" y1="13.65" x2="97.01" y2="-1.92"/><path class="cls-2" d="M115.14-7.91,97,52s-3.1,15.54,4.75,29.75"/><line class="cls-2" x1="109.91" y1="9.36" x2="142.56" y2="20.02"/><line class="cls-2" x1="147.22" y1="11.65" x2="138.44" y2="29.91"/><line class="cls-2" x1="187.97" x2="220.1" y2="29.91"/><line class="cls-2" x1="233.63" y1="11.65" x2="216.33" y2="-1.92"/><line class="cls-2" x1="34.41" y1="90.89" x2="59.34" y2="52"/><line class="cls-3" x1="179.81" y1="76.66" x2="148.73" y2="52"/><polyline class="cls-3" points="-4 158 79.92 217.93 79.92 225.04 38.9 306.23"/><line class="cls-2" x1="73.25" y1="213.17" x2="119.51" y2="144.63"/><line class="cls-3" x1="8.05" y1="224.02" x2="61.5" y2="258.66"/><line class="cls-1" x1="56.34" y1="223.02" x2="41.35" y2="245.9"/><line class="cls-2" x1="16.75" y1="280.38" x2="35.41" y2="242.86"/><line class="cls-2" x1="-4" y1="128.24" x2="26.08" y2="83.47"/><line class="cls-1" x1="-5.29" y1="100.31" x2="9.04" y2="110.82"/><line class="cls-2" x1="4.43" y1="164.02" x2="48.84" y2="99.61"/><line class="cls-3" x1="26.64" y1="131.81" x2="59.5" y2="152.02"/><line class="cls-2" x1="12.7" y1="152.02" x2="44.4" y2="169.14"/><path class="cls-4" d="M-23.51,339.12S48.34,318,63.5,330"/><line class="cls-3" x1="22" y1="291.52" x2="11.04" y2="328.15"/><path class="cls-2" d="M-5.29,384.53S28,335.72,26.64,328.15"/><line class="cls-2" x1="-18.43" y1="293.52" x2="17.6" y2="306.22"/><line class="cls-2" x1="-24.51" y1="300.87" x2="13.93" y2="318.49"/><line class="cls-2" x1="297.28" y1="71.44" x2="334.33" y2="32.91"/><polyline class="cls-1" points="324.66 42.97 338.69 52.18 331.16 64.33 315.98 52"/><polyline class="cls-1" points="300.8 67.79 315.98 81.75 327.34 67.79 313.83 54.4"/><line class="cls-3" x1="290.13" y1="59.6" x2="297.28" y2="65.68"/><line class="cls-3" x1="271.03" y1="79.51" x2="282.43" y2="91.2"/><line class="cls-2" x1="423.93" y1="13.65" x2="399.47" y2="-7.91"/><polyline class="cls-1" points="565.47 53.18 574.2 68.08 561.76 76.66 550.6 67.44"/><polyline class="cls-1" points="540.32 76.66 557.18 99.61 557.18 105.55"/><polyline class="cls-2" points="391.58 284.48 413.92 258.66 430.32 235.78"/><path class="cls-3" d="M419.06,252.28l70.74,39.24,41.85,31s33.77,19.36,36.66,29.18c2.83,9.63,8.51,8.42,15.05,29.88S598,431.84,598,431.84"/><line class="cls-3" x1="554.62" y1="294.64" x2="562.4" y2="343.9"/><line class="cls-2" x1="518.26" y1="277.8" x2="501.09" y2="299.87"/><line class="cls-2" x1="539.32" y1="285.34" x2="519.63" y2="310.95"/><line class="cls-2" x1="617.4" y1="164.02" x2="555.18" y2="294.52"/><polyline class="cls-2" points="492.77 374.49 514.42 347.73 531.65 322.47 555.6 294.64"/><polyline class="cls-2" points="502 271.29 486.11 289.48 466.2 315.85 433.78 344.9 413.92 356.34 381.76 371.44 343.72 381.76 343.72 374.87 303.18 383.76 293.71 360.09"/><path class="cls-3" d="M335.33,295.37c2.58,5.88,7,35.54,8.39,48.53s0,31,0,31v6.89s11.25,33.82,17.12,44.08,7.24,35.78,7.24,35.78"/><line class="cls-2" x1="383.97" y1="232.09" x2="416.31" y2="255.33"/><line class="cls-1" x1="338.69" y1="306.22" x2="356.65" y2="299.87"/><polyline class="cls-1" points="405.72 224.03 396.85 241.34 352.65 288.48"/><path class="cls-5" d="M461.69,596.28l-13.32-18.15-2.78-5.68A12,12,0,0,1,446,561.2c.6-1.05,1.34-2.23,2.23-3.58a58.74,58.74,0,0,1,10.14-11.68l22.9-26.1s15.71-16.33,24.22-20.91,26.18-8.18,26.18-8.18,11.79,1,19.64,5.56c5,2.89,8.87,7.91,14,13.11a31.49,31.49,0,0,0,10.83,7.49A99,99,0,0,1,598,529.3v11.52s-22.49-19.64-27.07-21-26.8-16.36-28.3-19-13.16-3.27-13.16-3.27l-20.94,11.13L487.8,521.84l-10.47,12.21L466.2,548.67l-10.78,10,0,0a12.37,12.37,0,0,0-.35,12.7c2.84,5.15,5.65,13.55,7.31,14.45,2.84,1.53,9.08,11.39,9.08,11.39Z"/><path class="cls-3" d="M534.27,504.82l5.05-16s2.15-3-7.67-4.77S478,502.85,478,502.85l-19.63,17-7.86,14.18-25.3,17.73"/><polyline class="cls-2" points="397.85 315.85 416.31 311.94 439.36 306.23 450.49 299.87 450.49 277.8 430.79 286.86 416.31 293.52 409.95 263.72"/><line class="cls-2" x1="430.79" y1="286.86" x2="439.36" y2="306.22"/><polyline class="cls-2" points="419.06 415.14 455.07 457.25 470.13 486.94 477.98 502.86 481.25 511.36 463.36 536.89 439.36 561.11 433.78 563.73"/><line class="cls-2" x1="415.31" y1="387.44" x2="425.19" y2="403.49"/><path class="cls-1" d="M405.72,435.69l-5.58-6.32-8.56-25.9-9.82-32c4.59-5.08-20.92-60.49-20.92-60.49l-6.19-17.43-5.4-20"/><polyline class="cls-1" points="364.43 435.69 354.65 438.71 351.71 431.84"/><polyline class="cls-2" points="458.35 600.38 444.37 577.47 421.17 546.94 400.14 504.82 391.58 510.71 387.38 518.56 368.08 527.3 331.16 568 301.18 540.86"/><polyline class="cls-1" points="286.43 527.23 304.18 538.86 338.69 559.7"/><line class="cls-2" x1="304.18" y1="324.18" x2="354.67" y2="258.72"/><path class="cls-3" d="M403.77,603.87l35.59-24.43,19-15.71,9.85-12,18.24-22.85a15,15,0,0,1,3.15-2.95L517,507a14,14,0,0,1,2.66-1.45l6-2.47a9.44,9.44,0,0,1,7.46.15l6.35,2.9L550,512.67l23.57,16.63,11.93,8.77a9.88,9.88,0,0,1,1.47,1.34l16,18.21"/><path class="cls-1" d="M473.93,577.37l4.73,13.3,6.85,13.2,34.64-17.34h0a7.64,7.64,0,0,0,1.55-10l-10.61-16.43-2.59-2.5a8.71,8.71,0,0,0-9.36-1.66L494.2,558l-17.29,10.87-1.38.77A8.69,8.69,0,0,0,473.93,577.37Z"/><polyline class="cls-2" points="391.58 446.35 404.77 461.62 421.17 492.78 437.36 513.98 453.13 529.3"/><line class="cls-2" x1="356.65" y1="592.53" x2="331.16" y2="568"/><line class="cls-2" x1="159.61" y1="468.6" x2="169.83" y2="471.1"/><path class="cls-5" d="M469.35,180.35l11.9,9.85v4.36l5.21,4.6,2.77-8.17,6-9.64,7.25-5a1.3,1.3,0,0,0,.11-1.76l-2.71-3.36a1.65,1.65,0,0,0-2.77.34h0a1.6,1.6,0,0,1-2.47.55l-6.88-5.65,4-4.84,16.81,12.26a2.52,2.52,0,0,1,.29,3.57l-5.95,6.94-8.75,10.2c-.16.19-.31.39-.46.59l-4.5,6.35a7.93,7.93,0,0,1-.92,1.09l-5.07,5.08a1.28,1.28,0,0,1-1.86-.06l-14.44-16.41a7.62,7.62,0,0,1-1.6-4.79l0-1.3Z"/><path class="cls-11" d="M277.53,223s-12.88-19.66-19.28-33.86c-2.06-4.56-.32-12.1,1.34-15.31,4.29-8.28,13.2-10.7,21.4-5.67,5.32,3.26,10,10.81,8.16,18.43C280.89,220,277.53,223,277.53,223Z"/><circle class="cls-12" cx="272.88" cy="182.94" r="5.47"/><path class="cls-11" d="M438.73,341.32A107.19,107.19,0,0,1,432.27,330c-.69-1.53-.11-4.06.45-5.14a4.83,4.83,0,0,1,7.17-1.9,6,6,0,0,1,2.74,6.18C439.86,340.33,438.73,341.32,438.73,341.32Z"/><circle class="cls-12" cx="437.18" cy="327.91" r="1.83"/><path class="cls-11" d="M583.43,199.46A107.19,107.19,0,0,1,577,188.12c-.69-1.53-.11-4.06.45-5.14a4.83,4.83,0,0,1,7.17-1.9,6,6,0,0,1,2.74,6.18C584.56,198.47,583.43,199.46,583.43,199.46Z"/><circle class="cls-12" cx="581.88" cy="186.06" r="1.83"/><path class="cls-11" d="M476,166a104.8,104.8,0,0,1-6.46-11.35c-.69-1.53-.11-4.05.45-5.13a4.81,4.81,0,0,1,7.17-1.9,6,6,0,0,1,2.74,6.18C477.12,165,476,166,476,166Z"/><circle class="cls-12" cx="474.43" cy="152.56" r="1.83"/><path class="cls-11" d="M466.69,91.83a104.8,104.8,0,0,1-6.46-11.35c-.69-1.53-.11-4.06.45-5.13a4.81,4.81,0,0,1,7.17-1.9,6,6,0,0,1,2.74,6.18C467.82,90.83,466.69,91.83,466.69,91.83Z"/><circle class="cls-12" cx="465.13" cy="78.42" r="1.83"/><path class="cls-11" d="M509.9,57.21a104.8,104.8,0,0,1-6.46-11.35c-.69-1.53-.11-4.06.45-5.13a4.81,4.81,0,0,1,7.17-1.9A6,6,0,0,1,513.8,45C511,56.21,509.9,57.21,509.9,57.21Z"/><circle class="cls-12" cx="508.34" cy="43.8" r="1.83"/><path class="cls-11" d="M287.8,551.33A104.24,104.24,0,0,1,281.34,540c-.69-1.53-.11-4.06.45-5.14A4.82,4.82,0,0,1,289,533a6,6,0,0,1,2.73,6.18C288.92,550.34,287.8,551.33,287.8,551.33Z"/><circle class="cls-12" cx="286.24" cy="537.93" r="1.83"/><path class="cls-11" d="M258,349.72a106.52,106.52,0,0,1-6.47-11.34c-.68-1.53-.1-4.06.45-5.14a4.83,4.83,0,0,1,7.18-1.9,6,6,0,0,1,2.73,6.18C259.15,348.73,258,349.72,258,349.72Z"/><circle class="cls-12" cx="256.47" cy="336.32" r="1.83"/><path class="cls-11" d="M541.7,540.42a106.52,106.52,0,0,1-6.47-11.34c-.69-1.53-.1-4.06.45-5.14a4.83,4.83,0,0,1,7.18-1.9,6,6,0,0,1,2.73,6.18C542.82,539.43,541.7,540.42,541.7,540.42Z"/><circle class="cls-12" cx="540.14" cy="527.01" r="1.83"/><text class="cls-13" transform="translate(508.09 198.16)">K<tspan class="cls-14" x="7.06" y="0">on</tspan><tspan class="cls-15" x="19.61" y="0">g</tspan><tspan class="cls-14" x="24.94" y="0">ens H</tspan><tspan class="cls-16" x="53.1" y="0">a</tspan><tspan class="cls-17" x="58.6" y="0">v</tspan><tspan class="cls-14" x="63.78" y="0">e</tspan></text><text class="cls-18" transform="translate(299.98 412.22)">INDRE <tspan class="cls-19" x="81.79" y="0">B</tspan><tspan x="97.58" y="0">Y</tspan></text><text class="cls-20" transform="translate(282.88 272.49)">Nør<tspan class="cls-21" x="18.84" y="0">r</tspan><tspan x="23.24" y="0">eport St.</tspan></text><text class="cls-22" transform="matrix(0.33, -0.95, 0.95, 0.33, 126.27, 258.64)">P<tspan class="cls-23" x="7.39" y="0">eblin</tspan><tspan class="cls-15" x="34.36" y="0">g</tspan><tspan class="cls-24" x="40.23" y="0">e Sø</tspan></text><text class="cls-20" transform="translate(201.03 550.43)">Rådhuspladsen</text><text class="cls-20" transform="translate(479.62 553.24)">Christiansborg Slot</text><text class="cls-25" transform="translate(366.65 91.2)">G<tspan class="cls-26" x="8.11" y="0">eologisk Museum</tspan></text><text class="cls-20" transform="translate(417.57 38.92)">SMK - Sta<tspan class="cls-27" x="48.95" y="0">t</tspan><tspan class="cls-26" x="52.2" y="0">ens </tspan><tspan x="-9.36" y="12">Museum </tspan><tspan class="cls-28" x="36.18" y="12">f</tspan><tspan x="39.51" y="12">or </tspan><tspan class="cls-27" x="52.6" y="12">K</tspan><tspan x="59.76" y="12">unst</tspan></text><text class="cls-29" transform="translate(79.79 544.14) rotate(-1.04)">V<tspan class="cls-26" x="6.19" y="0">es</tspan><tspan class="cls-27" x="16.72" y="0">t</tspan><tspan class="cls-14" x="19.97" y="0">erport St.</tspan></text><text class="cls-30" transform="translate(279.22 239.87) rotate(-2.89)">Nør<tspan class="cls-31" x="37.16" y="0">r</tspan><tspan class="cls-32" x="45.98" y="0">e </tspan><tspan class="cls-33" x="62.4" y="0">F</tspan><tspan x="74.82" y="0">arimagsgade 76</tspan></text><text class="cls-20" transform="translate(212.34 358.85)">Ørs<tspan class="cls-27" x="18.04" y="0">t</tspan><tspan class="cls-26" x="21.29" y="0">edspar</tspan><tspan class="cls-27" x="55.07" y="0">k</tspan><tspan x="60.5" y="0">en</tspan></text><text class="cls-20" transform="translate(393.97 164.02)">Rosenborg Slot</text><text class="cls-34" transform="translate(35.04 583.88) rotate(-76.95)">Sankt <tspan class="cls-35" x="30.67" y="0">J</tspan><tspan class="cls-26" x="34.93" y="0">ør</tspan><tspan class="cls-15" x="45.55" y="0">g</tspan><tspan x="50.88" y="0">ens Sø</tspan></text><text class="cls-36" transform="translate(223.2 36.92)">Fis<tspan class="cls-37" x="16.07" y="0">k</tspan><tspan x="22.04" y="0">eøen</tspan></text><path class="cls-7" d="M606,522.71s-13.21,4.11-17.52,15.36,19.7,17.15,19.7,17.15"/><path class="cls-38" d="M555-1.92,552.71,8.13c-.06,2.34-.77,4.67-.14,6.92l.64,2.27c.62,2.22,2.37,4.6,1.3,6.65l-.22,2.31a5.72,5.72,0,0,1-5.95,3l-3.47-.55c-3.69-1.82-5.13-7.46-5.41-11.56L539.39,16a7.48,7.48,0,0,1,.14-2.06l3.38-15.86Z"/><path class="cls-38" d="M507.29,25.84c3.2.58,9-.05,12.8,1.72s11.35,1.78,11.35,1.78,6.55-.59,7.93,1.73c.62,1.06.22,2.78-.4,4.33A7.59,7.59,0,0,1,534,39.83l-1.81.53a7.87,7.87,0,0,1-2.21.31H507.58s-12.17.28-13.65-1.75-5.6-2.3-5.09-4.07c1-3.49,3.43-4,7-6C500,26.59,505.59,25.53,507.29,25.84Z"/><path class="cls-38" d="M405.72,164l-9.85-2.44s-3.2-2.46-5.82,3.92,1.53,10,1.53,10,1.38,6.29,7.2,6.88,5.21-2.91,4.94-4.66c-.14-.88,1.33-.8,2.84-.5a8.58,8.58,0,0,0,6.92-1.54,31.52,31.52,0,0,0,8.28-10.15c5.53-10.21,0-13.48,0-13.48l-5.45-11.57s-5.29-8.14-2.39-12.8a65.94,65.94,0,0,0,5.14-11.05s2.12-9.23-4-7.23a9.7,9.7,0,0,0-6.69,7.81l-.29,16.5L411,149.47l1.21,9.6s1.76,5-1.21,5Z"/><text class="cls-20" transform="translate(371.71 339.46)">Rundetaarn</text><use transform="translate(351.36 258.85) scale(0.01)" xlink:href="#image"/><use transform="translate(128.76 516.91) scale(0.01)" xlink:href="#image"/></g></svg>